<svg width="96" height="120" viewBox="0 0 96 120" fill="none" xmlns="http://www.w3.org/2000/svg">
<path d="M48 120C34.7 120 23.376 115.133 14.028 105.398C4.676 95.6589 0 83.8947 0 70.1053C0 63.1579 1.226 56.7095 3.678 50.76C6.126 44.8147 9.6 39.5789 14.1 35.0526L48 0L81.9 35.0526C86.4 39.5789 89.876 44.8147 92.328 50.76C94.776 56.7095 96 63.1579 96 70.1053C96 83.8947 91.326 95.6589 81.978 105.398C72.626 115.133 61.3 120 48 120ZM48 107.368C58 107.368 66.5 103.709 73.5 96.3916C80.5 89.0779 84 80.3158 84 70.1053C84 65.0526 83.124 60.3411 81.372 55.9705C79.624 51.6042 77 47.6842 73.5 44.2105L48 17.6842L22.5 44.2105C19 47.6842 16.376 51.6042 14.628 55.9705C12.876 60.3411 12 65.0526 12 70.1053C12 80.3158 15.5 89.0779 22.5 96.3916C29.5 103.709 38 107.368 48 107.368Z" fill="#22C55E"/>
</svg>
