<svg width="130" height="130" viewBox="0 0 130 130" fill="none" xmlns="http://www.w3.org/2000/svg">
<path d="M65 82.7273C69.9242 82.7273 74.1098 81.0038 77.5568 77.5568C81.0038 74.1098 82.7273 69.9242 82.7273 65C82.7273 60.0758 81.0038 55.8902 77.5568 52.4432C74.1098 48.9962 69.9242 47.2727 65 47.2727C60.0758 47.2727 55.8902 48.9962 52.4432 52.4432C48.9962 55.8902 47.2727 60.0758 47.2727 65C47.2727 69.9242 48.9962 74.1098 52.4432 77.5568C55.8902 81.0038 60.0758 82.7273 65 82.7273ZM65 94.5455C56.8258 94.5455 49.8589 91.6638 44.0995 85.9005C38.3362 80.1411 35.4545 73.1742 35.4545 65C35.4545 56.8258 38.3362 49.857 44.0995 44.0936C49.8589 38.3342 56.8258 35.4545 65 35.4545C73.1742 35.4545 80.143 38.3342 85.9064 44.0936C91.6658 49.857 94.5455 56.8258 94.5455 65C94.5455 73.1742 91.6658 80.1411 85.9064 85.9005C80.143 91.6638 73.1742 94.5455 65 94.5455ZM5.90909 70.9091C4.23485 70.9091 2.83242 70.3418 1.70182 69.2073C0.567273 68.0767 0 66.6742 0 65C0 63.3258 0.567273 61.9214 1.70182 60.7868C2.83242 59.6562 4.23485 59.0909 5.90909 59.0909H17.7273C19.4015 59.0909 20.8059 59.6562 21.9405 60.7868C23.0711 61.9214 23.6364 63.3258 23.6364 65C23.6364 66.6742 23.0711 68.0767 21.9405 69.2073C20.8059 70.3418 19.4015 70.9091 17.7273 70.9091H5.90909ZM112.273 70.9091C110.598 70.9091 109.196 70.3418 108.065 69.2073C106.931 68.0767 106.364 66.6742 106.364 65C106.364 63.3258 106.931 61.9214 108.065 60.7868C109.196 59.6562 110.598 59.0909 112.273 59.0909H124.091C125.765 59.0909 127.168 59.6562 128.298 60.7868C129.433 61.9214 130 63.3258 130 65C130 66.6742 129.433 68.0767 128.298 69.2073C127.168 70.3418 125.765 70.9091 124.091 70.9091H112.273ZM65 23.6364C63.3258 23.6364 61.9233 23.0691 60.7927 21.9345C59.6582 20.8039 59.0909 19.4015 59.0909 17.7273V5.90909C59.0909 4.23485 59.6582 2.83045 60.7927 1.69591C61.9233 0.565303 63.3258 0 65 0C66.6742 0 68.0786 0.565303 69.2132 1.69591C70.3438 2.83045 70.9091 4.23485 70.9091 5.90909V17.7273C70.9091 19.4015 70.3438 20.8039 69.2132 21.9345C68.0786 23.0691 66.6742 23.6364 65 23.6364ZM65 130C63.3258 130 61.9233 129.433 60.7927 128.298C59.6582 127.168 59.0909 125.765 59.0909 124.091V112.273C59.0909 110.598 59.6582 109.196 60.7927 108.065C61.9233 106.931 63.3258 106.364 65 106.364C66.6742 106.364 68.0786 106.931 69.2132 108.065C70.3438 109.196 70.9091 110.598 70.9091 112.273V124.091C70.9091 125.765 70.3438 127.168 69.2132 128.298C68.0786 129.433 66.6742 130 65 130ZM27.4773 35.75L21.125 29.5455C19.9432 28.4621 19.3759 27.0833 19.4232 25.4091C19.4744 23.7348 20.0417 22.3068 21.125 21.125C22.3068 19.9432 23.7348 19.3523 25.4091 19.3523C27.0833 19.3523 28.4621 19.9432 29.5455 21.125L35.75 27.4773C36.8333 28.6591 37.375 30.0379 37.375 31.6136C37.375 33.1894 36.8333 34.5682 35.75 35.75C34.6667 36.9318 33.3135 37.4971 31.6905 37.4459C30.0635 37.3986 28.6591 36.8333 27.4773 35.75ZM100.455 108.875L94.25 102.523C93.1667 101.341 92.625 99.9385 92.625 98.3155C92.625 96.6885 93.1667 95.3333 94.25 94.25C95.3333 93.0682 96.6885 92.5029 98.3155 92.5541C99.9385 92.6014 101.341 93.1667 102.523 94.25L108.875 100.455C110.057 101.538 110.624 102.917 110.577 104.591C110.526 106.265 109.958 107.693 108.875 108.875C107.693 110.057 106.265 110.648 104.591 110.648C102.917 110.648 101.538 110.057 100.455 108.875ZM94.25 35.75C93.0682 34.6667 92.5029 33.3115 92.5541 31.6845C92.6014 30.0615 93.1667 28.6591 94.25 27.4773L100.455 21.125C101.538 19.9432 102.917 19.3759 104.591 19.4232C106.265 19.4744 107.693 20.0417 108.875 21.125C110.057 22.3068 110.648 23.7348 110.648 25.4091C110.648 27.0833 110.057 28.4621 108.875 29.5455L102.523 35.75C101.341 36.8333 99.9621 37.375 98.3864 37.375C96.8106 37.375 95.4318 36.8333 94.25 35.75ZM21.125 108.875C19.9432 107.693 19.3523 106.265 19.3523 104.591C19.3523 102.917 19.9432 101.538 21.125 100.455L27.4773 94.25C28.6591 93.1667 30.0635 92.625 31.6905 92.625C33.3135 92.625 34.6667 93.1667 35.75 94.25C36.9318 95.3333 37.4991 96.6885 37.4518 98.3155C37.4006 99.9385 36.8333 101.341 35.75 102.523L29.5455 108.875C28.4621 110.057 27.0833 110.622 25.4091 110.571C23.7348 110.524 22.3068 109.958 21.125 108.875Z" fill="#22C55E"/>
</svg>
