<svg width="130" height="130" viewBox="0 0 130 130" fill="none" xmlns="http://www.w3.org/2000/svg">
<path d="M104.464 129.96C99.982 130.218 95.5166 129.221 91.5695 127.082C87.6224 124.943 84.3498 121.747 82.1191 117.852C79.8883 113.957 78.7878 109.517 78.941 105.031C79.0942 100.546 80.4951 96.1914 82.9864 92.4574L99.775 67.4772C100.292 66.7085 100.99 66.0787 101.808 65.6432C102.625 65.2077 103.538 64.9799 104.464 64.9799C105.391 64.9799 106.303 65.2077 107.121 65.6432C107.939 66.0787 108.637 66.7085 109.154 67.4772L125.636 91.9701C128.362 96.0028 129.877 100.732 130 105.597C129.834 112.21 127.054 118.487 122.267 123.053C117.481 127.62 111.079 130.104 104.464 129.96ZM104.464 77.1407L90.8329 97.4098C89.2286 99.7407 88.3218 102.48 88.2188 105.308C88.1157 108.135 88.8206 110.933 90.2509 113.375C91.6813 115.816 93.7778 117.8 96.295 119.093C98.8122 120.386 101.646 120.936 104.464 120.677C108.617 120.822 112.658 119.316 115.703 116.49C118.748 113.664 120.55 109.748 120.714 105.597C120.607 102.485 119.59 99.4728 117.789 96.9318L104.464 77.1407ZM41.7857 64.9801V41.7729H46.4286C51.3521 41.7668 56.0723 39.8088 59.5538 36.3284C63.0353 32.8479 64.9939 28.1292 65 23.2072V9.28288H51.0714C46.3171 9.29067 41.7488 11.131 38.3175 14.4209C35.9133 10.0569 32.3825 6.41718 28.093 3.88084C23.8035 1.3445 18.9122 0.00435822 13.9286 0H0V13.9243C0.00860141 21.3076 2.9463 28.386 8.16867 33.6068C13.391 38.8275 20.4716 41.7643 27.8571 41.7729H32.5V64.9801H0V74.263H65V64.9801H41.7857ZM51.0714 18.5658H55.7143V23.2072C55.7118 25.6684 54.7327 28.0281 52.9918 29.7685C51.251 31.5088 48.8905 32.4876 46.4286 32.4901H41.7857V27.8486C41.7882 25.3874 42.7673 23.0277 44.5082 21.2874C46.249 19.547 48.6095 18.5682 51.0714 18.5658ZM27.8571 32.4901C22.9336 32.4839 18.2134 30.5259 14.7319 27.0455C11.2505 23.5651 9.29186 18.8464 9.28571 13.9243V9.28288H13.9286C18.8521 9.28902 23.5723 11.247 27.0538 14.7274C30.5353 18.2079 32.4939 22.9266 32.5 27.8486V32.4901H27.8571ZM0 88.1873H65V97.4702H0V88.1873ZM0 111.395H65V120.677H0V111.395Z" fill="#22C55E"/>
</svg>
