<svg width="72" height="131" viewBox="0 0 72 131" fill="none" xmlns="http://www.w3.org/2000/svg">
<path d="M41.1162 84.8726V46.6171H30.8837V84.8726C27.47 85.9753 24.593 88.145 22.7609 90.9983C20.9289 93.8517 20.2599 97.2048 20.8722 100.465C21.4845 103.726 23.3386 106.683 26.1068 108.815C28.8751 110.948 32.3792 112.117 36 112.117C39.6207 112.117 43.1248 110.948 45.8931 108.815C48.6613 106.683 50.5154 103.726 51.1277 100.465C51.74 97.2048 51.071 93.8517 49.239 90.9983C47.407 88.145 44.5299 85.9753 41.1162 84.8726Z" fill="#22C55E"/>
<path d="M36 131C28.9139 131.007 21.9834 129.109 16.0787 125.545C10.1741 121.981 5.55855 116.908 2.81168 110.965C0.064811 105.022 -0.690922 98.4732 0.639376 92.1406C1.96967 85.8081 5.3267 79.9743 10.2889 75.3718V23.3929C10.2889 17.1887 12.9977 11.2386 17.8195 6.85161C22.6413 2.4646 29.181 0 36 0C42.819 0 49.3587 2.4646 54.1805 6.85161C59.0022 11.2386 61.7111 17.1887 61.7111 23.3929V75.3718C66.6733 79.9743 70.0303 85.8081 71.3606 92.1406C72.6909 98.4732 71.9352 105.022 69.1883 110.965C66.4414 116.908 61.8259 121.981 55.9213 125.545C50.0166 129.109 43.0861 131.007 36 131ZM36 9.35714C31.9098 9.36086 27.9884 10.8408 25.0962 13.4722C22.204 16.1036 20.5774 19.6715 20.5733 23.3929V79.4562L18.8661 80.8551C14.9831 84.0127 12.2456 88.1688 11.0159 92.7731C9.78622 97.3775 10.1223 102.213 11.9798 106.64C13.8372 111.067 17.1284 114.876 21.4177 117.563C25.7069 120.251 30.7921 121.689 36 121.689C41.2079 121.689 46.2931 120.251 50.5823 117.563C54.8716 114.876 58.1628 111.067 60.0202 106.64C61.8777 102.213 62.2138 97.3775 60.9841 92.7731C59.7544 88.1688 57.0169 84.0127 53.1339 80.8551L51.4266 79.4562V23.3929C51.4226 19.6715 49.796 16.1036 46.9038 13.4722C44.0116 10.8408 40.0901 9.36086 36 9.35714Z" fill="#22C55E"/>
</svg>
